<svg width="25" height="24" viewBox="0 0 25 24" fill="none" xmlns="http://www.w3.org/2000/svg">
<path d="M12.3235 2C6.8035 2 2.3335 6.48 2.3335 12C2.3335 17.52 6.8035 22 12.3235 22C17.8535 22 22.3335 17.52 22.3335 12C22.3335 6.48 17.8535 2 12.3235 2ZM19.2535 8H16.3035C15.9835 6.75 15.5235 5.55 14.9235 4.44C16.7635 5.07 18.2935 6.35 19.2535 8ZM12.3335 4.04C13.1635 5.24 13.8135 6.57 14.2435 8H10.4235C10.8535 6.57 11.5035 5.24 12.3335 4.04ZM4.5935 14C4.4335 13.36 4.3335 12.69 4.3335 12C4.3335 11.31 4.4335 10.64 4.5935 10H7.9735C7.8935 10.66 7.8335 11.32 7.8335 12C7.8335 12.68 7.8935 13.34 7.9735 14H4.5935ZM5.4135 16H8.3635C8.6835 17.25 9.1435 18.45 9.7435 19.56C7.9035 18.93 6.3735 17.66 5.4135 16V16ZM8.3635 8H5.4135C6.3735 6.34 7.9035 5.07 9.7435 4.44C9.1435 5.55 8.6835 6.75 8.3635 8V8ZM12.3335 19.96C11.5035 18.76 10.8535 17.43 10.4235 16H14.2435C13.8135 17.43 13.1635 18.76 12.3335 19.96ZM14.6735 14H9.9935C9.9035 13.34 9.8335 12.68 9.8335 12C9.8335 11.32 9.9035 10.65 9.9935 10H14.6735C14.7635 10.65 14.8335 11.32 14.8335 12C14.8335 12.68 14.7635 13.34 14.6735 14ZM14.9235 19.56C15.5235 18.45 15.9835 17.25 16.3035 16H19.2535C18.2935 17.65 16.7635 18.93 14.9235 19.56V19.56ZM16.6935 14C16.7735 13.34 16.8335 12.68 16.8335 12C16.8335 11.32 16.7735 10.66 16.6935 10H20.0735C20.2335 10.64 20.3335 11.31 20.3335 12C20.3335 12.69 20.2335 13.36 20.0735 14H16.6935Z" fill="white"/>
</svg>
